<svg xmlns="http://www.w3.org/2000/svg" viewBox="0 0 24 24">
  <rect width="24" height="24" rx="5" fill="#0f172a"/>
  <circle cx="12" cy="12" r="10.5" fill="#000000" fill-opacity="0.3" stroke="#ffffff" stroke-opacity="0.35" stroke-width="0.75"/>
  <path d="M12 3.5 L13.3 6.2 L10.7 6.2 Z" fill="white"/>
  <line x1="20.2" y1="12" x2="21.5" y2="12" stroke="white" stroke-width="0.8" stroke-linecap="round" opacity="0.5"/>
  <line x1="12" y1="20.2" x2="12" y2="21.5" stroke="white" stroke-width="0.8" stroke-linecap="round" opacity="0.5"/>
  <line x1="3.8" y1="12" x2="2.5" y2="12" stroke="white" stroke-width="0.8" stroke-linecap="round" opacity="0.5"/>
  <g transform="rotate(-60, 12, 12)" opacity="0.85">
    <line x1="12" y1="12" x2="12" y2="5" stroke="white" stroke-width="1" stroke-linecap="round"/>
    <path d="M12 4 L10.5 6 L13.5 6 Z" fill="white"/>
  </g>
  <g transform="rotate(60, 12, 12)" opacity="0.6">
    <line x1="12" y1="12" x2="12" y2="7" stroke="white" stroke-width="1" stroke-linecap="round"/>
    <path d="M12 6 L10.5 8 L13.5 8 Z" fill="white"/>
  </g>
  <g transform="rotate(90, 12, 12)">
    <path d="M12 4.8 L11 6.5 L13 6.5 Z" fill="#ef4444"/>
  </g>
  <circle cx="12" cy="12" r="1.5" fill="white"/>
  <circle cx="12" cy="12" r="0.6" fill="#000000" fill-opacity="0.7"/>
</svg>
